# xmcd
#
# Track frame offsets:
#	150
#	14272
#	26573
#	39872
#	53209
#	64868
#	78398
#	93004
#	105758
#	118773
#	130384
#	143258
#	154270
#	168031
#	182069
#	192912
#	206180
#	218205
#	229937
#	239671
#	251555
#	261832
#	274203
#	286344
#	299796
#
# Disc length: 4162 seconds
#
# Revision: 0
# Processed by: cddbd v1.5.2PL0 Copyright (c) Steve Scherf et al.
# Submitted via: FairStars CD Ripper 1.90
#
DISCID=6b104019
DTITLE=Howlin' Wolf - The Blues
DYEAR=2013
DGENRE=Blues
TTITLE0=Smokestack lightnin'
TTITLE1=How many more years?
TTITLE2=Moanin' at midnight
TTITLE3=Evil (Is goin' on)
TTITLE4=Who will be next
TTITLE5=The wolf is at your door
TTITLE6=I'll be around
TTITLE7=Forty four
TTITLE8=I asked for water (she gave me gasoline)
TTITLE9=Sittin' on top of the world
TTITLE10=Moanin' for my baby
TTITLE11=I didn't know
TTITLE12=My life
TTITLE13=You can't be beat
TTITLE14=Come to me baby
TTITLE15=Baby how long?
TTITLE16=Don't mess with my baby
TTITLE17=Poor boy
TTITLE18=So glad
TTITLE19=I have a little girl
TTITLE20=All night boogie
TTITLE21=Spoonful
TTITLE22=Going back home
TTITLE23=I love my baby
TTITLE24=Mr. airplane man
EXTD=
EXTT0=
EXTT1=
EXTT2=
EXTT3=
EXTT4=
EXTT5=
EXTT6=
EXTT7=
EXTT8=
EXTT9=
EXTT10=
EXTT11=
EXTT12=
EXTT13=
EXTT14=
EXTT15=
EXTT16=
EXTT17=
EXTT18=
EXTT19=
EXTT20=
EXTT21=
EXTT22=
EXTT23=
EXTT24=
PLAYORDER=
